<?xml version="1.0" encoding="UTF-8" standalone="no"?>
<!-- Created with Inkscape (http://www.inkscape.org/) -->

<svg
   xmlns:dc="http://purl.org/dc/elements/1.1/"
   xmlns:cc="http://creativecommons.org/ns#"
   xmlns:rdf="http://www.w3.org/1999/02/22-rdf-syntax-ns#"
   xmlns:svg="http://www.w3.org/2000/svg"
   xmlns="http://www.w3.org/2000/svg"
   xmlns:sodipodi="http://sodipodi.sourceforge.net/DTD/sodipodi-0.dtd"
   xmlns:inkscape="http://www.inkscape.org/namespaces/inkscape"
   id="svg2"
   version="1.1"
   inkscape:version="0.48.4 r9939"
   width="1027.56"
   height="88.48775"
   xml:space="preserve"
   sodipodi:docname="banner.svg"><metadata
     id="metadata8"><rdf:RDF><cc:Work
         rdf:about=""><dc:format>image/svg+xml</dc:format><dc:type
           rdf:resource="http://purl.org/dc/dcmitype/StillImage" /><dc:title /></cc:Work></rdf:RDF></metadata><defs
     id="defs6"><clipPath
       clipPathUnits="userSpaceOnUse"
       id="clipPath18"><path
         d="m 0,70.79 822.048,0 0,-70.79 L 0,0 0,70.79 z"
         id="path20" /></clipPath><clipPath
       clipPathUnits="userSpaceOnUse"
       id="clipPath274"><path
         d="M 35.077,37.158 C 29.251,37.069 22.819,32.782 20.679,31.161 l 0,0 0.048,-8.45 c 2.149,2.404 8.637,8.049 15.108,8.843 l 0,0 c 0.278,0.033 0.504,0.049 0.692,0.045 l 0,0 -0.777,5.153 c -0.029,0.116 -0.048,0.243 -0.065,0.381 l 0,0 c -0.139,0.019 -0.304,0.028 -0.505,0.028 l 0,0 c -0.034,0 -0.068,0 -0.103,-0.003"
         id="path276" /></clipPath><linearGradient
       x1="0"
       y1="0"
       x2="1"
       y2="0"
       gradientUnits="userSpaceOnUse"
       gradientTransform="matrix(18.491348,6.0081806,-6.0081806,18.491348,18.992676,26.820312)"
       spreadMethod="pad"
       id="linearGradient282"><stop
         style="stop-opacity:1;stop-color:#0067aa"
         offset="0"
         id="stop284" /><stop
         style="stop-opacity:1;stop-color:#009dd8"
         offset="0.333328"
         id="stop286" /><stop
         style="stop-opacity:1;stop-color:#293a68"
         offset="1"
         id="stop288" /></linearGradient><clipPath
       clipPathUnits="userSpaceOnUse"
       id="clipPath296"><path
         d="m 36.971,35.931 c -0.743,-0.098 -1.076,0.18 -1.221,0.821 l 0,0 0.777,-5.153 0.018,0 c 0.089,-0.796 0.228,-2.024 1.558,-1.875 l 0,0 c 1.779,0.198 4.58,1.405 8.183,4.364 l 0,0 0,7.737 C 43.268,38.078 38.64,36.15 36.971,35.931"
         id="path298" /></clipPath><linearGradient
       x1="0"
       y1="0"
       x2="1"
       y2="0"
       gradientUnits="userSpaceOnUse"
       gradientTransform="matrix(11.850267,2.5188112,-2.5188112,11.850267,35.684082,34.5625)"
       spreadMethod="pad"
       id="linearGradient304"><stop
         style="stop-opacity:1;stop-color:#0067aa"
         offset="0"
         id="stop306" /><stop
         style="stop-opacity:1;stop-color:#009dd8"
         offset="0.218185"
         id="stop308" /><stop
         style="stop-opacity:1;stop-color:#293a68"
         offset="1"
         id="stop310" /></linearGradient><clipPath
       clipPathUnits="userSpaceOnUse"
       id="clipPath318"><path
         d="m 36.491,31.599 c -0.18,0 -0.397,-0.014 -0.656,-0.045 l 0,0 C 29.364,30.76 22.876,25.115 20.727,22.711 l 0,0 0.008,-1.588 6.671,0 c 1.767,1.839 7.034,4.931 9.985,4.867 l 0,0 -0.864,5.609 -0.036,0 z"
         id="path320" /></clipPath><linearGradient
       x1="0"
       y1="0"
       x2="1"
       y2="0"
       gradientUnits="userSpaceOnUse"
       gradientTransform="matrix(17.627836,3.7469621,-3.7469621,17.627836,19.828613,24.414062)"
       spreadMethod="pad"
       id="linearGradient326"><stop
         style="stop-opacity:1;stop-color:#6c1d17"
         offset="0"
         id="stop328" /><stop
         style="stop-opacity:1;stop-color:#e02725"
         offset="0.569702"
         id="stop330" /><stop
         style="stop-opacity:1;stop-color:#6c1d17"
         offset="1"
         id="stop332" /></linearGradient><clipPath
       clipPathUnits="userSpaceOnUse"
       id="clipPath340"><path
         d="m 38.103,29.724 c -1.33,-0.149 -1.469,1.079 -1.558,1.875 l 0,0 -0.018,0 0.839,-5.603 c 0.122,-0.63 0.342,-1.363 1.043,-1.695 l 0,0 c 1.932,-0.919 7.877,2.369 7.877,2.369 l 0,0 0,7.417 0,10e-4 c -3.603,-2.959 -6.404,-4.166 -8.183,-4.364"
         id="path342" /></clipPath><linearGradient
       x1="0"
       y1="0"
       x2="1"
       y2="0"
       gradientUnits="userSpaceOnUse"
       gradientTransform="matrix(10.514067,2.2348583,-2.2348583,10.514067,36.848144,27.757812)"
       spreadMethod="pad"
       id="linearGradient348"><stop
         style="stop-opacity:1;stop-color:#6c1d17"
         offset="0"
         id="stop350" /><stop
         style="stop-opacity:1;stop-color:#e02725"
         offset="0.327271"
         id="stop352" /><stop
         style="stop-opacity:1;stop-color:#6c1d17"
         offset="1"
         id="stop354" /></linearGradient><clipPath
       clipPathUnits="userSpaceOnUse"
       id="clipPath362"><path
         d="m 34.895,42.036 c 0.022,-0.033 0.065,-0.065 0.136,-0.099 l 0,0 c 0.122,-0.06 0.321,-0.096 0.585,-0.1 l 0,0 0.005,10e-4 -0.135,0.888 c -0.032,-0.212 -0.724,-0.478 -0.591,-0.69"
         id="path364" /></clipPath><linearGradient
       x1="0"
       y1="0"
       x2="1"
       y2="0"
       gradientUnits="userSpaceOnUse"
       gradientTransform="matrix(-0.1896202,0.8920479,-0.8920479,-0.1896202,35.301269,41.765137)"
       spreadMethod="pad"
       id="linearGradient370"><stop
         style="stop-opacity:1;stop-color:#cba221"
         offset="0"
         id="stop372" /><stop
         style="stop-opacity:1;stop-color:#ecdd32"
         offset="1"
         id="stop374" /></linearGradient><clipPath
       clipPathUnits="userSpaceOnUse"
       id="clipPath382"><path
         d="m 20.642,37.715 0.037,-6.554 c 2.14,1.621 8.572,5.908 14.398,5.997 l 0,0 c 0.246,0.006 0.448,-0.003 0.608,-0.025 l 0,0 -0.79,4.903 c -0.243,0.387 2.278,0.958 -1.545,1.037 l 0,0 c -0.112,0 -0.222,0.003 -0.335,0.003 l 0,0 c -7.652,0 -12.373,-5.361 -12.373,-5.361"
         id="path384" /></clipPath><linearGradient
       x1="0"
       y1="0"
       x2="1"
       y2="0"
       gradientUnits="userSpaceOnUse"
       gradientTransform="matrix(17.366476,5.6427073,-5.6427073,17.366476,19.414551,34.023437)"
       spreadMethod="pad"
       id="linearGradient390"><stop
         style="stop-opacity:1;stop-color:#f6ce0d"
         offset="0"
         id="stop392" /><stop
         style="stop-opacity:1;stop-color:#ecdd32"
         offset="0.181824"
         id="stop394" /><stop
         style="stop-opacity:1;stop-color:#cba221"
         offset="0.836365"
         id="stop396" /><stop
         style="stop-opacity:1;stop-color:#b18e24"
         offset="1"
         id="stop398" /></linearGradient><clipPath
       clipPathUnits="userSpaceOnUse"
       id="clipPath406"><path
         d="m 35.031,41.937 c -0.071,0.034 -0.114,0.066 -0.136,0.099 l 0,0 0.79,-4.903 c 0.085,-0.572 0.148,-1.348 1.286,-1.202 l 0,0 c 1.669,0.211 6.297,2.147 9.315,5.894 l 0,0 0,7.615 C 41.756,42.447 36.012,41.467 35.031,41.937"
         id="path408" /></clipPath><linearGradient
       x1="0"
       y1="0"
       x2="1"
       y2="0"
       gradientUnits="userSpaceOnUse"
       gradientTransform="matrix(13.143067,2.7936587,-2.7936587,13.143067,34.535644,41.328125)"
       spreadMethod="pad"
       id="linearGradient414"><stop
         style="stop-opacity:1;stop-color:#f6ce0d"
         offset="0"
         id="stop416" /><stop
         style="stop-opacity:1;stop-color:#ecdd32"
         offset="0.181824"
         id="stop418" /><stop
         style="stop-opacity:1;stop-color:#cba221"
         offset="1"
         id="stop420" /></linearGradient><clipPath
       clipPathUnits="userSpaceOnUse"
       id="clipPath428"><path
         d="m 0,70.79 822.048,0 0,-70.79 L 0,0 0,70.79 z"
         id="path430" /></clipPath><clipPath
       clipPathUnits="userSpaceOnUse"
       id="clipPath472"><path
         d="m 0,70.79 822.048,0 0,-70.79 L 0,0 0,70.79 z"
         id="path474" /></clipPath><clipPath
       clipPathUnits="userSpaceOnUse"
       id="clipPath500"><path
         d="m 717.36,26.4399 1.338,0 0,-0.9008 -1.338,0 0,0.9008 z"
         id="path502" /></clipPath><clipPath
       clipPathUnits="userSpaceOnUse"
       id="clipPath516"><path
         d="m 717.36,26.4399 1.338,0 0,-0.9008 -1.338,0 0,0.9008 z"
         id="path518" /></clipPath><clipPath
       clipPathUnits="userSpaceOnUse"
       id="clipPath532"><path
         d="m 717.36,26.4399 1.338,0 0,-0.9008 -1.338,0 0,0.9008 z"
         id="path534" /></clipPath><clipPath
       clipPathUnits="userSpaceOnUse"
       id="clipPath572"><path
         d="m 717.092,25.6812 0.723,0 0,-0.5523 -0.723,0 0,0.5523 z"
         id="path574" /></clipPath><clipPath
       clipPathUnits="userSpaceOnUse"
       id="clipPath588"><path
         d="m 717.092,25.6812 0.723,0 0,-0.5523 -0.723,0 0,0.5523 z"
         id="path590" /></clipPath><clipPath
       clipPathUnits="userSpaceOnUse"
       id="clipPath604"><path
         d="m 717.092,25.6812 0.723,0 0,-0.5523 -0.723,0 0,0.5523 z"
         id="path606" /></clipPath><clipPath
       clipPathUnits="userSpaceOnUse"
       id="clipPath620"><path
         d="m 717.092,25.6812 0.723,0 0,-0.5523 -0.723,0 0,0.5523 z"
         id="path622" /></clipPath><clipPath
       clipPathUnits="userSpaceOnUse"
       id="clipPath640"><path
         d="m 716.999,25.7773 0.361,0 0,-0.2163 -0.361,0 0,0.2163 z"
         id="path642" /></clipPath><clipPath
       clipPathUnits="userSpaceOnUse"
       id="clipPath656"><path
         d="m 716.999,25.7773 0.361,0 0,-0.2163 -0.361,0 0,0.2163 z"
         id="path658" /></clipPath><clipPath
       clipPathUnits="userSpaceOnUse"
       id="clipPath672"><path
         d="m 716.999,25.7773 0.361,0 0,-0.2163 -0.361,0 0,0.2163 z"
         id="path674" /></clipPath><clipPath
       clipPathUnits="userSpaceOnUse"
       id="clipPath688"><path
         d="m 716.999,25.7773 0.361,0 0,-0.2163 -0.361,0 0,0.2163 z"
         id="path690" /></clipPath><clipPath
       clipPathUnits="userSpaceOnUse"
       id="clipPath704"><path
         d="m 716.999,25.7773 0.361,0 0,-0.2163 -0.361,0 0,0.2163 z"
         id="path706" /></clipPath><clipPath
       clipPathUnits="userSpaceOnUse"
       id="clipPath728"><path
         d="m 723.191,19.1978 1.421,0 0,-0.0459 -1.421,0 0,0.0459 z"
         id="path730" /></clipPath><clipPath
       clipPathUnits="userSpaceOnUse"
       id="clipPath760"><path
         d="m 715.157,22.7358 8.034,0 0,-3.538 -8.034,0 0,3.538 z"
         id="path762" /></clipPath><clipPath
       clipPathUnits="userSpaceOnUse"
       id="clipPath776"><path
         d="m 715.496,24.3984 1.202,0 0,-1.1933 -1.202,0 0,1.1933 z"
         id="path778" /></clipPath><clipPath
       clipPathUnits="userSpaceOnUse"
       id="clipPath792"><path
         d="m 715.496,24.3984 1.202,0 0,-1.1933 -1.202,0 0,1.1933 z"
         id="path794" /></clipPath><clipPath
       clipPathUnits="userSpaceOnUse"
       id="clipPath808"><path
         d="m 715.496,24.3984 1.202,0 0,-1.1933 -1.202,0 0,1.1933 z"
         id="path810" /></clipPath><clipPath
       clipPathUnits="userSpaceOnUse"
       id="clipPath824"><path
         d="m 716.698,23.2051 0.561,0 0,-0.4693 -0.561,0 0,0.4693 z"
         id="path826" /></clipPath><clipPath
       clipPathUnits="userSpaceOnUse"
       id="clipPath840"><path
         d="m 716.698,23.2051 0.561,0 0,-0.4693 -0.561,0 0,0.4693 z"
         id="path842" /></clipPath><clipPath
       clipPathUnits="userSpaceOnUse"
       id="clipPath856"><path
         d="m 716.698,23.2051 0.561,0 0,-0.4693 -0.561,0 0,0.4693 z"
         id="path858" /></clipPath><clipPath
       clipPathUnits="userSpaceOnUse"
       id="clipPath872"><path
         d="m 717.259,23.5791 3.183,0 0,-1.7388 -3.183,0 0,1.7388 z"
         id="path874" /></clipPath></defs><sodipodi:namedview
     pagecolor="#ffffff"
     bordercolor="#666666"
     borderopacity="1"
     objecttolerance="10"
     gridtolerance="10"
     guidetolerance="10"
     inkscape:pageopacity="0"
     inkscape:pageshadow="2"
     inkscape:window-width="1855"
     inkscape:window-height="1056"
     id="namedview4"
     showgrid="false"
     inkscape:zoom="1.6592704"
     inkscape:cx="398.97053"
     inkscape:cy="23.459141"
     inkscape:window-x="65"
     inkscape:window-y="24"
     inkscape:window-maximized="1"
     inkscape:current-layer="g10"
     inkscape:snap-bbox="false" /><g
     id="g10"
     inkscape:groupmode="layer"
     inkscape:label="Horizontal2"
     transform="matrix(1.25,0,0,-1.25,0,88.48775)"><path
       inkscape:connector-curvature="0"
       d="m 808.47,56.617 -793.701,0 0,-42.723 793.701,0 0,42.723 z"
       style="fill:#ffffff;fill-opacity:1;fill-rule:nonzero;stroke:none"
       id="path12" /><g
       id="g14"><g
         id="g16"
         clip-path="url(#clipPath18)"><g
           id="g22"
           transform="translate(179.2422,22.7622)"><path
             inkscape:connector-curvature="0"
             d="m 0,0 c 0,-0.508 0.104,-0.881 0.309,-1.122 0.2,-0.241 0.449,-0.363 0.739,-0.363 0.298,0 0.549,0.124 0.761,0.374 0.211,0.251 0.316,0.637 0.316,1.165 0,0.5 -0.102,0.875 -0.31,1.125 C 1.612,1.426 1.368,1.552 1.081,1.552 0.797,1.552 0.545,1.418 0.324,1.154 0.11,0.888 0,0.504 0,0 m -0.603,-3.448 0.001,5.434 0.607,-0.002 0,-0.511 c 0.143,0.2 0.304,0.349 0.484,0.448 0.179,0.101 0.398,0.152 0.655,0.152 0.334,0 0.63,-0.087 0.886,-0.259 C 2.288,1.642 2.48,1.395 2.61,1.083 2.741,0.767 2.808,0.425 2.808,0.049 2.808,-0.353 2.733,-0.715 2.587,-1.039 2.445,-1.358 2.235,-1.604 1.959,-1.776 1.687,-1.946 1.399,-2.031 1.095,-2.031 c -0.22,0 -0.422,0.047 -0.599,0.139 -0.175,0.095 -0.32,0.212 -0.434,0.356 l 0,-1.912 -0.665,0 z"
             style="fill:#838487;fill-opacity:1;fill-rule:evenodd;stroke:none"
             id="path24" /></g><g
           id="g26"
           transform="translate(185.2202,22.7896)"><path
             inkscape:connector-curvature="0"
             d="m 0,0 c -0.244,-0.099 -0.605,-0.183 -1.091,-0.252 -0.272,-0.04 -0.467,-0.083 -0.578,-0.133 -0.114,-0.049 -0.201,-0.122 -0.263,-0.219 -0.06,-0.092 -0.091,-0.197 -0.091,-0.314 0,-0.178 0.065,-0.325 0.196,-0.444 0.138,-0.117 0.335,-0.177 0.594,-0.177 0.255,0 0.486,0.057 0.684,0.167 0.199,0.112 0.347,0.266 0.442,0.461 0.068,0.151 0.106,0.372 0.106,0.665 L 0,0 z m 0.052,-1.488 c -0.245,-0.209 -0.481,-0.358 -0.715,-0.443 -0.224,-0.086 -0.468,-0.129 -0.728,-0.129 -0.431,0 -0.763,0.104 -0.995,0.314 -0.232,0.212 -0.346,0.482 -0.346,0.811 0,0.191 0.041,0.365 0.128,0.524 0.089,0.16 0.202,0.289 0.344,0.385 0.142,0.096 0.302,0.169 0.478,0.219 0.134,0.033 0.329,0.067 0.594,0.099 0.537,0.063 0.932,0.139 1.188,0.228 0,0.093 0.002,0.148 0.002,0.173 0,0.273 -0.061,0.463 -0.189,0.574 -0.169,0.149 -0.421,0.226 -0.755,0.226 -0.316,0 -0.545,-0.054 -0.698,-0.167 -0.147,-0.108 -0.257,-0.302 -0.329,-0.58 l -0.649,0.089 c 0.059,0.278 0.156,0.503 0.292,0.673 0.136,0.172 0.331,0.303 0.587,0.395 0.255,0.095 0.554,0.141 0.891,0.141 0.334,0 0.609,-0.042 0.817,-0.119 C 0.179,1.847 0.331,1.746 0.431,1.624 0.531,1.508 0.599,1.356 0.638,1.174 0.662,1.062 0.671,0.857 0.671,0.563 l 0,-0.888 c 0,-0.62 0.016,-1.012 0.04,-1.177 0.03,-0.162 0.085,-0.319 0.171,-0.47 l -0.696,0 c -0.069,0.139 -0.113,0.299 -0.134,0.484"
             style="fill:#838487;fill-opacity:1;fill-rule:evenodd;stroke:none"
             id="path28" /></g><g
           id="g30"
           transform="translate(186.7754,20.8179)"><path
             inkscape:connector-curvature="0"
             d="m 0,0 0.001,3.927 0.599,0 0,-0.596 c 0.154,0.277 0.292,0.461 0.421,0.549 0.132,0.091 0.275,0.134 0.43,0.134 0.223,0 0.452,-0.071 0.685,-0.215 L 1.905,3.182 C 1.742,3.278 1.58,3.328 1.418,3.328 1.271,3.328 1.142,3.282 1.024,3.192 0.91,3.108 0.827,2.987 0.775,2.832 0.704,2.594 0.665,2.337 0.665,2.055 L 0.665,0 0,0 z"
             style="fill:#838487;fill-opacity:1;fill-rule:nonzero;stroke:none"
             id="path32" /></g><g
           id="g34"
           transform="translate(191.6729,22.7866)"><path
             inkscape:connector-curvature="0"
             d="m 0,0 c -0.242,-0.097 -0.604,-0.183 -1.088,-0.249 -0.273,-0.04 -0.465,-0.085 -0.579,-0.135 -0.114,-0.051 -0.202,-0.122 -0.264,-0.218 -0.061,-0.094 -0.092,-0.2 -0.092,-0.315 0,-0.176 0.066,-0.325 0.202,-0.444 0.134,-0.117 0.331,-0.177 0.589,-0.177 0.257,0 0.482,0.057 0.684,0.167 0.2,0.113 0.345,0.267 0.442,0.462 C -0.037,-0.759 0,-0.537 0,-0.243 L 0,0 z m 0.055,-1.486 c -0.247,-0.208 -0.484,-0.357 -0.714,-0.443 -0.226,-0.088 -0.471,-0.13 -0.731,-0.13 -0.433,0 -0.762,0.106 -0.997,0.315 -0.231,0.212 -0.345,0.483 -0.345,0.809 0,0.193 0.044,0.368 0.129,0.527 0.088,0.159 0.204,0.288 0.344,0.384 0.14,0.095 0.302,0.17 0.48,0.22 0.132,0.031 0.328,0.065 0.593,0.096 0.537,0.065 0.931,0.142 1.186,0.231 0.002,0.089 0.004,0.146 0.004,0.173 0,0.272 -0.063,0.461 -0.19,0.573 -0.169,0.149 -0.421,0.224 -0.756,0.224 -0.315,0 -0.545,-0.053 -0.695,-0.165 -0.15,-0.108 -0.259,-0.303 -0.33,-0.581 l -0.651,0.089 c 0.06,0.278 0.157,0.503 0.293,0.673 0.135,0.173 0.331,0.304 0.588,0.396 0.257,0.094 0.552,0.14 0.889,0.139 0.336,0 0.609,-0.039 0.82,-0.118 C 0.18,1.847 0.334,1.748 0.432,1.626 0.531,1.508 0.6,1.358 0.641,1.176 0.663,1.062 0.672,0.858 0.672,0.562 l 0,-0.886 c 0,-0.62 0.015,-1.013 0.039,-1.177 0.031,-0.163 0.086,-0.32 0.171,-0.47 l -0.695,0.002 c -0.068,0.137 -0.112,0.298 -0.132,0.483"
             style="fill:#838487;fill-opacity:1;fill-rule:evenodd;stroke:none"
             id="path36" /></g><g
           id="g38"
           transform="translate(195.7061,23.1553)"><path
             inkscape:connector-curvature="0"
             d="M 0,0 2.191,0 C 2.163,0.331 2.078,0.579 1.941,0.743 1.728,0.999 1.453,1.127 1.116,1.127 0.81,1.127 0.552,1.027 0.344,0.822 0.136,0.617 0.021,0.343 0,0 M 2.184,-1.075 2.871,-1.161 C 2.763,-1.564 2.561,-1.875 2.268,-2.096 1.976,-2.317 1.6,-2.431 1.143,-2.429 c -0.573,0 -1.029,0.178 -1.364,0.532 -0.336,0.351 -0.505,0.847 -0.505,1.487 0,0.66 0.173,1.172 0.513,1.537 0.338,0.366 0.777,0.548 1.321,0.548 0.524,0 0.954,-0.18 1.288,-0.536 0.331,-0.358 0.498,-0.861 0.498,-1.509 0,-0.04 -0.002,-0.099 -0.005,-0.179 l -2.927,0.002 c 0.024,-0.43 0.145,-0.763 0.367,-0.991 0.22,-0.229 0.492,-0.343 0.819,-0.343 0.246,0 0.452,0.063 0.624,0.191 0.173,0.129 0.311,0.334 0.412,0.615"
             style="fill:#838487;fill-opacity:1;fill-rule:evenodd;stroke:none"
             id="path40" /></g><g
           id="g42"
           transform="translate(199.2607,20.8145)"><path
             inkscape:connector-curvature="0"
             d="m 0,0 0.002,5.418 0.665,0 L 0.665,0 0,0 z"
             style="fill:#838487;fill-opacity:1;fill-rule:nonzero;stroke:none"
             id="path44" /></g><g
           id="g46"
           transform="translate(178.7051,28.3901)"><path
             inkscape:connector-curvature="0"
             d="m 0,0 0.001,5.421 1.079,0 1.282,-3.839 C 2.479,1.225 2.567,0.957 2.622,0.78 2.682,0.976 2.778,1.267 2.908,1.648 l 1.3,3.771 0.964,0 L 5.17,0 4.479,0 4.482,4.536 2.905,0 2.258,0 0.691,4.612 0.69,0 0,0 z"
             style="fill:#838487;fill-opacity:1;fill-rule:nonzero;stroke:none"
             id="path48" /></g><g
           id="g50"
           transform="translate(184.8511,28.3901)"><path
             inkscape:connector-curvature="0"
             d="m 0,0 0.001,3.923 0.663,0 L 0.662,0 0,0 z m 0.001,5.419 0.663,0 0,-0.768 -0.663,0 0,0.768 z"
             style="fill:#838487;fill-opacity:1;fill-rule:evenodd;stroke:none"
             id="path52" /></g><g
           id="g54"
           transform="translate(186.4243,28.3882)"><path
             inkscape:connector-curvature="0"
             d="m 0,0 0.002,3.925 0.598,0 0,-0.557 C 0.89,3.799 1.306,4.017 1.851,4.017 2.086,4.017 2.305,3.971 2.5,3.885 2.7,3.801 2.85,3.69 2.948,3.553 3.048,3.414 3.116,3.251 3.155,3.062 3.181,2.936 3.192,2.721 3.192,2.416 L 3.189,0 2.524,0 l 0,2.387 C 2.524,2.659 2.5,2.862 2.45,2.996 2.398,3.129 2.305,3.237 2.172,3.315 2.041,3.396 1.889,3.439 1.709,3.439 1.428,3.439 1.181,3.348 0.976,3.167 0.771,2.987 0.667,2.645 0.667,2.144 L 0.665,0 0,0 z"
             style="fill:#838487;fill-opacity:1;fill-rule:nonzero;stroke:none"
             id="path56" /></g><g
           id="g58"
           transform="translate(190.5361,28.3882)"><path
             inkscape:connector-curvature="0"
             d="m 0,0 0.001,3.925 0.666,0 L 0.665,-0.001 0,0 z m 0.001,4.654 0.001,0.767 0.665,-0.002 0,-0.765 -0.666,0 z"
             style="fill:#838487;fill-opacity:1;fill-rule:evenodd;stroke:none"
             id="path60" /></g><g
           id="g62"
           transform="translate(191.8452,29.5586)"><path
             inkscape:connector-curvature="0"
             d="m 0,0 0.662,0.104 c 0.034,-0.266 0.137,-0.464 0.305,-0.606 0.17,-0.141 0.407,-0.212 0.709,-0.212 0.306,0 0.532,0.061 0.68,0.185 0.15,0.126 0.223,0.275 0.223,0.44 0,0.152 -0.065,0.267 -0.196,0.356 C 2.292,0.326 2.064,0.4 1.702,0.491 1.214,0.615 0.875,0.721 0.687,0.809 0.5,0.903 0.356,1.027 0.257,1.182 0.161,1.345 0.115,1.52 0.115,1.713 c 0,0.174 0.036,0.336 0.117,0.482 0.081,0.151 0.191,0.277 0.329,0.376 0.104,0.074 0.243,0.14 0.423,0.191 C 1.163,2.817 1.356,2.846 1.562,2.844 1.868,2.844 2.137,2.799 2.37,2.71 2.603,2.621 2.776,2.5 2.887,2.348 2.996,2.195 3.072,1.994 3.113,1.741 L 2.465,1.65 C 2.437,1.855 2.348,2.012 2.204,2.125 2.065,2.24 1.865,2.297 1.607,2.297 1.302,2.297 1.084,2.247 0.955,2.145 0.822,2.044 0.756,1.926 0.756,1.789 0.756,1.703 0.786,1.625 0.839,1.557 0.892,1.485 0.977,1.427 1.093,1.381 1.16,1.356 1.354,1.299 1.682,1.207 2.152,1.083 2.48,0.979 2.664,0.898 2.853,0.818 2.996,0.705 3.105,0.549 3.21,0.397 3.261,0.207 3.261,-0.02 3.261,-0.238 3.198,-0.449 3.068,-0.648 2.94,-0.841 2.753,-0.994 2.508,-1.103 2.264,-1.208 1.987,-1.258 1.68,-1.26 1.167,-1.258 0.781,-1.154 0.513,-0.941 0.245,-0.73 0.075,-0.416 0,0"
             style="fill:#838487;fill-opacity:1;fill-rule:nonzero;stroke:none"
             id="path64" /></g><g
           id="g66"
           transform="translate(197.2485,28.9814)"><path
             inkscape:connector-curvature="0"
             d="m 0,0 0.098,-0.588 c -0.189,-0.039 -0.356,-0.059 -0.504,-0.059 -0.242,0 -0.429,0.039 -0.561,0.115 -0.134,0.077 -0.227,0.175 -0.28,0.3 -0.057,0.126 -0.082,0.39 -0.082,0.786 l 0,2.26 -0.488,0 0,0.516 0.488,0 0,0.974 0.663,0.4 0,-1.374 0.667,0 0,-0.516 -0.668,0 0,-2.296 c 0,-0.19 0.009,-0.313 0.031,-0.366 0.026,-0.056 0.062,-0.097 0.117,-0.13 0.053,-0.032 0.129,-0.049 0.23,-0.049 0.073,0 0.168,0.009 0.289,0.027"
             style="fill:#838487;fill-opacity:1;fill-rule:nonzero;stroke:none"
             id="path68" /></g><g
           id="g70"
           transform="translate(198.3003,30.7246)"><path
             inkscape:connector-curvature="0"
             d="M 0,0 2.192,-0.002 C 2.163,0.331 2.08,0.579 1.941,0.744 1.729,1 1.455,1.128 1.117,1.128 0.812,1.128 0.554,1.024 0.345,0.822 0.137,0.616 0.023,0.344 0,0 M 2.184,-1.077 2.872,-1.16 C 2.765,-1.562 2.563,-1.875 2.27,-2.095 1.978,-2.318 1.602,-2.427 1.146,-2.427 c -0.574,0 -1.031,0.176 -1.367,0.529 -0.335,0.356 -0.504,0.85 -0.502,1.49 0,0.66 0.169,1.172 0.51,1.536 0.339,0.365 0.78,0.548 1.324,0.548 0.523,0 0.952,-0.178 1.286,-0.537 0.33,-0.357 0.498,-0.86 0.498,-1.51 0,-0.037 0,-0.097 -0.004,-0.176 l -2.927,0.001 c 0.024,-0.432 0.143,-0.762 0.365,-0.992 0.218,-0.228 0.494,-0.342 0.818,-0.342 0.247,0 0.456,0.066 0.628,0.192 0.171,0.13 0.309,0.332 0.409,0.611"
             style="fill:#838487;fill-opacity:1;fill-rule:evenodd;stroke:none"
             id="path72" /></g><g
           id="g74"
           transform="translate(201.8979,28.3848)"><path
             inkscape:connector-curvature="0"
             d="m 0,0 0.001,3.925 0.601,0 0,-0.595 c 0.15,0.278 0.291,0.461 0.419,0.551 0.131,0.088 0.274,0.133 0.429,0.133 0.223,0 0.453,-0.07 0.683,-0.215 L 1.904,3.183 C 1.742,3.278 1.579,3.328 1.418,3.328 1.273,3.328 1.141,3.282 1.024,3.194 0.91,3.106 0.826,2.986 0.777,2.831 0.701,2.596 0.668,2.336 0.668,2.055 L 0.666,0 0,0 z"
             style="fill:#838487;fill-opacity:1;fill-rule:nonzero;stroke:none"
             id="path76" /></g><g
           id="g78"
           transform="translate(204.3267,28.3848)"><path
             inkscape:connector-curvature="0"
             d="m 0,0 0.002,3.925 0.666,0 L 0.668,0 0,0 z m 0.002,4.654 0.001,0.766 0.667,0 -0.002,-0.766 -0.666,0 z"
             style="fill:#838487;fill-opacity:1;fill-rule:evenodd;stroke:none"
             id="path80" /></g><g
           id="g82"
           transform="translate(206.3403,30.3472)"><path
             inkscape:connector-curvature="0"
             d="m 0,0 c 0,-0.502 0.11,-0.881 0.327,-1.132 0.22,-0.25 0.496,-0.374 0.829,-0.374 0.33,0 0.605,0.126 0.825,0.377 0.22,0.251 0.329,0.635 0.329,1.151 0,0.484 -0.109,0.852 -0.331,1.101 C 1.758,1.375 1.483,1.5 1.156,1.5 0.826,1.5 0.549,1.375 0.327,1.126 0.11,0.878 0,0.501 0,0 m -0.685,0 c 0,0.726 0.203,1.264 0.609,1.616 C 0.261,1.905 0.671,2.052 1.157,2.052 1.697,2.05 2.136,1.874 2.481,1.518 2.823,1.166 2.994,0.676 2.994,0.053 2.994,-0.451 2.917,-0.849 2.763,-1.141 2.615,-1.429 2.394,-1.653 2.103,-1.813 1.813,-1.972 1.499,-2.052 1.156,-2.052 c -0.55,0 -0.997,0.176 -1.333,0.528 -0.337,0.352 -0.508,0.858 -0.508,1.524"
             style="fill:#838487;fill-opacity:1;fill-rule:evenodd;stroke:none"
             id="path84" /></g><g
           id="g86"
           transform="translate(212.4561,30.3403)"><path
             inkscape:connector-curvature="0"
             d="m 0,0 c 0,-0.5 0.107,-0.877 0.318,-1.127 0.212,-0.248 0.462,-0.374 0.75,-0.374 0.292,0 0.537,0.119 0.741,0.356 0.205,0.238 0.306,0.602 0.306,1.089 0,0.537 -0.105,0.933 -0.309,1.184 C 1.598,1.378 1.342,1.505 1.041,1.505 0.744,1.505 0.5,1.385 0.297,1.143 0.099,0.901 0,0.523 0,0 m 2.105,-1.959 0,0.497 c -0.249,-0.391 -0.618,-0.584 -1.1,-0.584 -0.312,0 -0.602,0.086 -0.863,0.257 -0.261,0.174 -0.466,0.414 -0.612,0.721 -0.142,0.31 -0.213,0.667 -0.213,1.068 0,0.392 0.066,0.748 0.197,1.065 0.131,0.321 0.326,0.568 0.587,0.734 0.261,0.172 0.552,0.258 0.876,0.258 0.237,0 0.448,-0.051 0.633,-0.154 C 1.793,1.806 1.945,1.677 2.062,1.515 l 0,1.948 L 2.724,3.461 2.721,-1.96 2.105,-1.959 z"
             style="fill:#838487;fill-opacity:1;fill-rule:evenodd;stroke:none"
             id="path88" /></g><g
           id="g90"
           transform="translate(216.625,30.7192)"><path
             inkscape:connector-curvature="0"
             d="M 0,0 2.19,0 C 2.161,0.331 2.077,0.578 1.942,0.744 1.728,1 1.454,1.129 1.117,1.129 0.811,1.129 0.552,1.027 0.343,0.822 0.136,0.617 0.022,0.344 0,0 M 2.184,-1.076 2.871,-1.158 C 2.762,-1.561 2.562,-1.871 2.268,-2.095 1.975,-2.318 1.601,-2.429 1.144,-2.429 c -0.573,0.004 -1.029,0.179 -1.368,0.531 -0.334,0.356 -0.501,0.85 -0.501,1.49 0,0.661 0.169,1.172 0.509,1.537 0.341,0.366 0.784,0.549 1.322,0.547 0.527,0 0.957,-0.18 1.29,-0.537 0.33,-0.357 0.496,-0.859 0.496,-1.509 0,-0.038 0,-0.098 -0.002,-0.176 l -2.928,0 c 0.026,-0.433 0.145,-0.762 0.368,-0.99 0.216,-0.229 0.489,-0.344 0.817,-0.344 0.247,0 0.454,0.065 0.627,0.191 0.173,0.13 0.308,0.333 0.41,0.613"
             style="fill:#838487;fill-opacity:1;fill-rule:evenodd;stroke:none"
             id="path92" /></g><g
           id="g94"
           transform="translate(220.2139,28.3799)"><path
             inkscape:connector-curvature="0"
             d="m 0,0 0.001,5.42 0.665,0 L 0.665,0 0,0 z"
             style="fill:#838487;fill-opacity:1;fill-rule:nonzero;stroke:none"
             id="path96" /></g><g
           id="g98"
           transform="translate(224.6143,31.2217)"><path
             inkscape:connector-curvature="0"
             d="m 0,0 1.398,-0.001 c 0.464,0 0.795,0.087 0.988,0.259 C 2.58,0.43 2.677,0.673 2.677,0.985 2.679,1.211 2.619,1.406 2.504,1.566 2.392,1.729 2.242,1.837 2.054,1.889 1.933,1.919 1.712,1.937 1.385,1.937 L 0,1.938 0,0 z m -0.72,-2.842 0.002,5.42 2.045,-0.002 C 1.687,2.576 1.959,2.56 2.153,2.523 2.417,2.48 2.64,2.396 2.82,2.271 3,2.146 3.143,1.973 3.252,1.748 3.363,1.523 3.419,1.276 3.417,1.009 3.417,0.547 3.271,0.156 2.979,-0.163 2.684,-0.483 2.155,-0.641 1.388,-0.641 l -1.39,0 0,-2.201 -0.718,0 z"
             style="fill:#838487;fill-opacity:1;fill-rule:evenodd;stroke:none"
             id="path100" /></g><g
           id="g102"
           transform="translate(229.1924,30.3403)"><path
             inkscape:connector-curvature="0"
             d="m 0,0 c -0.001,-0.502 0.11,-0.879 0.329,-1.131 0.22,-0.249 0.496,-0.374 0.829,-0.374 0.332,0 0.607,0.125 0.826,0.377 0.219,0.251 0.33,0.634 0.33,1.15 0,0.486 -0.11,0.853 -0.334,1.103 C 1.761,1.374 1.487,1.5 1.16,1.5 0.825,1.5 0.551,1.378 0.331,1.128 0.111,0.878 0,0.501 0,0 m -0.682,0 c 0,0.726 0.203,1.266 0.607,1.617 C 0.26,1.906 0.673,2.052 1.16,2.052 1.699,2.052 2.138,1.874 2.48,1.518 2.824,1.167 2.997,0.677 2.997,0.053 2.996,-0.451 2.921,-0.85 2.766,-1.139 2.614,-1.426 2.395,-1.653 2.104,-1.812 1.816,-1.972 1.502,-2.051 1.158,-2.051 c -0.551,0 -0.995,0.175 -1.335,0.527 -0.337,0.354 -0.505,0.86 -0.505,1.524"
             style="fill:#838487;fill-opacity:1;fill-rule:evenodd;stroke:none"
             id="path104" /></g><g
           id="g106"
           transform="translate(233.3081,30.3364)"><path
             inkscape:connector-curvature="0"
             d="m 0,0 c 0,-0.503 0.107,-0.88 0.32,-1.128 0.211,-0.25 0.46,-0.373 0.748,-0.373 0.292,-0.003 0.538,0.119 0.739,0.353 0.205,0.24 0.309,0.602 0.309,1.091 0,0.537 -0.104,0.932 -0.311,1.184 C 1.597,1.376 1.346,1.502 1.04,1.504 0.743,1.504 0.497,1.383 0.298,1.142 0.101,0.901 0,0.52 0,0 m 2.104,-1.961 0,0.495 c -0.249,-0.39 -0.615,-0.583 -1.098,-0.583 -0.313,0 -0.601,0.088 -0.865,0.259 -0.262,0.174 -0.464,0.412 -0.611,0.721 -0.143,0.311 -0.212,0.665 -0.212,1.069 0,0.392 0.063,0.747 0.195,1.064 0.132,0.321 0.328,0.566 0.588,0.734 0.262,0.172 0.555,0.257 0.876,0.257 0.237,0 0.447,-0.052 0.633,-0.152 0.184,-0.1 0.334,-0.227 0.449,-0.389 l 0.003,1.945 0.661,0 -0.004,-5.42 -0.615,0 z"
             style="fill:#838487;fill-opacity:1;fill-rule:evenodd;stroke:none"
             id="path108" /></g><g
           id="g110"
           transform="translate(237.479,30.7144)"><path
             inkscape:connector-curvature="0"
             d="M 0,0 2.189,-0.001 C 2.162,0.331 2.078,0.577 1.938,0.744 1.728,1 1.453,1.13 1.111,1.13 0.81,1.13 0.551,1.025 0.344,0.821 0.135,0.617 0.022,0.344 0,0 M 2.183,-1.075 2.869,-1.159 C 2.759,-1.562 2.561,-1.875 2.268,-2.095 1.974,-2.317 1.597,-2.429 1.143,-2.429 c -0.578,0 -1.031,0.179 -1.368,0.531 -0.336,0.354 -0.499,0.85 -0.499,1.49 0,0.661 0.167,1.172 0.507,1.538 0.341,0.363 0.781,0.547 1.324,0.547 0.525,0 0.956,-0.18 1.286,-0.538 0.334,-0.357 0.5,-0.86 0.5,-1.51 0,-0.037 -10e-4,-0.097 -10e-4,-0.176 l -2.932,0.001 c 0.024,-0.432 0.145,-0.762 0.369,-0.992 0.215,-0.228 0.489,-0.344 0.818,-0.344 0.245,0 0.45,0.067 0.625,0.192 0.172,0.131 0.308,0.334 0.411,0.615"
             style="fill:#838487;fill-opacity:1;fill-rule:evenodd;stroke:none"
             id="path112" /></g><g
           id="g114"
           transform="translate(241.0747,28.375)"><path
             inkscape:connector-curvature="0"
             d="m 0,0 0,3.925 0.602,0 0,-0.595 c 0.15,0.276 0.289,0.462 0.419,0.55 0.128,0.09 0.271,0.134 0.43,0.134 0.223,0 0.451,-0.073 0.683,-0.215 L 1.903,3.182 C 1.74,3.278 1.58,3.328 1.416,3.328 1.271,3.328 1.143,3.282 1.023,3.193 0.909,3.106 0.825,2.986 0.779,2.831 0.702,2.594 0.665,2.336 0.665,2.055 L 0.665,0 0,0 z"
             style="fill:#838487;fill-opacity:1;fill-rule:nonzero;stroke:none"
             id="path116" /></g><g
           id="g118"
           transform="translate(246.3013,31.2153)"><path
             inkscape:connector-curvature="0"
             d="m 0,0 1.405,0 c 0.461,0 0.792,0.088 0.984,0.258 0.196,0.174 0.293,0.417 0.293,0.729 0,0.226 -0.057,0.42 -0.172,0.58 C 2.396,1.729 2.245,1.837 2.059,1.89 1.937,1.921 1.711,1.937 1.389,1.937 L 0,1.937 0,0 z m -0.714,-2.842 0.001,5.419 2.044,0 C 1.69,2.577 1.964,2.561 2.156,2.525 2.422,2.481 2.644,2.396 2.824,2.27 3.002,2.148 3.15,1.975 3.256,1.75 3.366,1.523 3.423,1.277 3.423,1.008 3.423,0.547 3.276,0.157 2.981,-0.164 2.689,-0.481 2.159,-0.641 1.394,-0.64 l -1.394,0 -0.001,-2.202 -0.713,0 z"
             style="fill:#838487;fill-opacity:1;fill-rule:evenodd;stroke:none"
             id="path120" /></g><g
           id="g122"
           transform="translate(250.8877,30.3364)"><path
             inkscape:connector-curvature="0"
             d="m 0,0 c 0,-0.504 0.106,-0.882 0.326,-1.133 0.218,-0.249 0.496,-0.373 0.83,-0.373 0.329,0 0.604,0.125 0.822,0.376 0.22,0.251 0.329,0.635 0.329,1.151 0,0.484 -0.109,0.852 -0.333,1.101 C 1.757,1.373 1.482,1.499 1.156,1.499 0.822,1.499 0.546,1.376 0.327,1.125 0.106,0.877 0,0.5 0,0 m -0.687,0 c 0,0.725 0.203,1.264 0.607,1.615 0.338,0.289 0.749,0.434 1.236,0.434 0.539,0 0.98,-0.176 1.324,-0.532 C 2.822,1.165 2.991,0.675 2.991,0.053 2.991,-0.454 2.914,-0.851 2.764,-1.141 2.611,-1.429 2.392,-1.654 2.1,-1.812 1.811,-1.973 1.497,-2.052 1.156,-2.052 c -0.552,0 -0.997,0.175 -1.337,0.526 -0.336,0.353 -0.506,0.86 -0.506,1.526"
             style="fill:#838487;fill-opacity:1;fill-rule:evenodd;stroke:none"
             id="path124" /></g><g
           id="g126"
           transform="translate(255.1602,30.312)"><path
             inkscape:connector-curvature="0"
             d="m 0,0 c 0,-0.505 0.102,-0.879 0.306,-1.119 0.203,-0.244 0.451,-0.364 0.743,-0.364 0.295,0 0.549,0.125 0.758,0.373 0.212,0.251 0.318,0.64 0.318,1.164 0,0.502 -0.104,0.876 -0.311,1.124 C 1.61,1.427 1.362,1.552 1.081,1.552 0.797,1.552 0.543,1.417 0.324,1.153 0.11,0.889 0,0.505 0,0 m -0.603,-3.445 0.003,5.43 0.605,0 -0.002,-0.509 c 0.141,0.198 0.305,0.347 0.485,0.446 0.181,0.1 0.398,0.152 0.653,0.152 0.338,0 0.631,-0.088 0.887,-0.26 C 2.285,1.642 2.48,1.397 2.608,1.082 2.741,0.77 2.806,0.425 2.806,0.05 2.806,-0.35 2.732,-0.714 2.586,-1.038 2.443,-1.357 2.235,-1.604 1.96,-1.775 1.686,-1.945 1.395,-2.03 1.093,-2.028 c -0.221,0 -0.424,0.047 -0.6,0.137 -0.176,0.095 -0.318,0.214 -0.431,0.357 l 0,-1.911 -0.665,0 z"
             style="fill:#838487;fill-opacity:1;fill-rule:evenodd;stroke:none"
             id="path128" /></g><g
           id="g130"
           transform="translate(261.2378,28.3682)"><path
             inkscape:connector-curvature="0"
             d="m 0,0 0.001,0.577 c -0.307,-0.443 -0.724,-0.663 -1.248,-0.663 -0.232,0 -0.448,0.045 -0.649,0.131 -0.199,0.089 -0.351,0.202 -0.447,0.333 -0.096,0.136 -0.164,0.301 -0.203,0.495 -0.027,0.132 -0.04,0.339 -0.04,0.622 l 0,2.431 0.665,0 -0.002,-2.175 c 0,-0.349 0.017,-0.584 0.041,-0.705 0.043,-0.173 0.13,-0.314 0.266,-0.411 0.138,-0.101 0.303,-0.151 0.501,-0.151 0.201,0 0.387,0.052 0.564,0.152 0.178,0.105 0.3,0.242 0.369,0.419 0.075,0.177 0.112,0.433 0.112,0.766 l 0,2.104 0.665,0 L 0.594,0 0,0 z"
             style="fill:#838487;fill-opacity:1;fill-rule:nonzero;stroke:none"
             id="path132" /></g><g
           id="g134"
           transform="translate(262.7568,28.3682)"><path
             inkscape:connector-curvature="0"
             d="m 0,0 0.002,5.422 0.664,0 L 0.665,0 0,0 z"
             style="fill:#838487;fill-opacity:1;fill-rule:nonzero;stroke:none"
             id="path136" /></g><g
           id="g138"
           transform="translate(266.8589,30.3374)"><path
             inkscape:connector-curvature="0"
             d="m 0,0 c -0.243,-0.097 -0.605,-0.182 -1.086,-0.249 -0.275,-0.04 -0.47,-0.085 -0.582,-0.135 -0.111,-0.049 -0.201,-0.121 -0.264,-0.217 -0.06,-0.093 -0.09,-0.197 -0.09,-0.315 0,-0.177 0.065,-0.325 0.2,-0.444 0.132,-0.118 0.332,-0.178 0.591,-0.178 0.255,0 0.483,0.057 0.684,0.165 0.198,0.115 0.342,0.269 0.439,0.464 C -0.037,-0.759 0,-0.538 0,-0.243 L 0,0 z m 0.054,-1.487 c -0.246,-0.207 -0.484,-0.354 -0.716,-0.442 -0.224,-0.084 -0.469,-0.127 -0.728,-0.127 -0.432,0 -0.761,0.103 -0.996,0.313 -0.228,0.212 -0.345,0.482 -0.345,0.808 0,0.193 0.042,0.368 0.13,0.527 0.086,0.159 0.202,0.288 0.344,0.383 0.144,0.098 0.302,0.169 0.478,0.22 0.132,0.033 0.329,0.066 0.593,0.098 0.538,0.064 0.935,0.14 1.186,0.229 0.001,0.091 0.003,0.147 0.003,0.174 0,0.271 -0.061,0.463 -0.189,0.574 -0.168,0.148 -0.419,0.225 -0.754,0.225 -0.317,0 -0.547,-0.055 -0.697,-0.167 -0.148,-0.106 -0.258,-0.302 -0.329,-0.58 l -0.652,0.089 c 0.061,0.279 0.158,0.502 0.295,0.673 0.135,0.173 0.331,0.303 0.583,0.395 0.26,0.094 0.555,0.142 0.896,0.14 0.334,0 0.608,-0.04 0.818,-0.117 C 0.181,1.847 0.335,1.748 0.431,1.627 0.531,1.508 0.598,1.359 0.639,1.177 0.663,1.063 0.673,0.858 0.671,0.562 l 0,-0.886 c 0,-0.618 0.013,-1.012 0.042,-1.177 0.029,-0.163 0.086,-0.319 0.17,-0.469 l -0.696,0 c -0.066,0.138 -0.113,0.3 -0.133,0.483"
             style="fill:#838487;fill-opacity:1;fill-rule:evenodd;stroke:none"
             id="path140" /></g><g
           id="g142"
           transform="translate(268.4541,28.3672)"><path
             inkscape:connector-curvature="0"
             d="m 0,0 0,3.926 0.6,0 0,-0.597 c 0.152,0.28 0.293,0.463 0.418,0.553 0.13,0.089 0.274,0.134 0.428,0.134 0.228,0 0.455,-0.074 0.686,-0.216 L 1.904,3.182 C 1.739,3.28 1.579,3.327 1.413,3.327 1.27,3.327 1.137,3.283 1.022,3.194 0.907,3.107 0.826,2.985 0.774,2.832 0.704,2.596 0.664,2.337 0.664,2.056 L 0.664,0 0,0 z"
             style="fill:#838487;fill-opacity:1;fill-rule:nonzero;stroke:none"
             id="path144" /></g><g
           id="g146"
           transform="translate(51.5669,24.7378)"><path
             inkscape:connector-curvature="0"
             d="m 0,0 c 0,-0.86 0.182,-1.503 0.544,-1.93 0.363,-0.426 0.791,-0.638 1.286,-0.638 0.498,0 0.919,0.202 1.264,0.606 0.35,0.408 0.526,1.029 0.527,1.867 0,0.918 -0.179,1.593 -0.533,2.024 C 2.736,2.359 2.298,2.574 1.78,2.574 1.274,2.574 0.85,2.366 0.508,1.954 0.17,1.541 0,0.892 0,0 m 3.601,-3.353 0,0.846 c -0.427,-0.666 -1.053,-0.996 -1.88,-0.996 -0.535,0 -1.029,0.145 -1.48,0.441 -0.447,0.294 -0.797,0.706 -1.043,1.235 -0.244,0.529 -0.367,1.141 -0.367,1.827 0,0.671 0.112,1.278 0.336,1.824 0.222,0.547 0.557,0.967 1.007,1.258 0.448,0.291 0.946,0.436 1.498,0.436 0.405,0 0.767,-0.087 1.082,-0.259 C 3.07,3.088 3.328,2.867 3.526,2.594 l 0.002,3.326 1.131,0 -0.003,-9.275 -1.055,0.002 z"
             style="fill:#838487;fill-opacity:1;fill-rule:evenodd;stroke:none"
             id="path148" /></g><g
           id="g150"
           transform="translate(58.3057,25.3887)"><path
             inkscape:connector-curvature="0"
             d="M 0,0 3.752,-0.001 C 3.701,0.564 3.558,0.987 3.321,1.269 2.958,1.709 2.488,1.928 1.912,1.928 1.388,1.928 0.948,1.754 0.588,1.404 0.235,1.054 0.039,0.586 0,0 M 3.738,-1.843 4.917,-1.986 C 4.73,-2.675 4.384,-3.21 3.882,-3.589 3.381,-3.968 2.738,-4.156 1.96,-4.156 c -0.983,0 -1.765,0.299 -2.341,0.904 -0.573,0.607 -0.859,1.457 -0.859,2.549 0,1.13 0.293,2.008 0.873,2.631 0.584,0.623 1.337,0.936 2.266,0.936 0.898,0 1.631,-0.306 2.2,-0.92 0.57,-0.608 0.853,-1.47 0.853,-2.578 0,-0.067 0,-0.171 -0.007,-0.303 l -5.009,0.002 c 0.043,-0.739 0.253,-1.305 0.626,-1.697 0.374,-0.393 0.844,-0.589 1.405,-0.59 0.416,0 0.771,0.109 1.068,0.331 0.298,0.216 0.53,0.566 0.703,1.048"
             style="fill:#838487;fill-opacity:1;fill-rule:evenodd;stroke:none"
             id="path152" /></g><g
           id="g154"
           transform="translate(69.9072,21.3813)"><path
             inkscape:connector-curvature="0"
             d="m 0,0 -3.592,9.275 1.33,0 2.406,-6.739 C 0.339,1.998 0.502,1.49 0.631,1.019 0.777,1.523 0.941,2.031 1.134,2.536 l 2.504,6.735 1.253,0 L 1.258,-0.002 0,0 z"
             style="fill:#838487;fill-opacity:1;fill-rule:nonzero;stroke:none"
             id="path156" /></g><g
           id="g158"
           transform="translate(76.0444,25.3843)"><path
             inkscape:connector-curvature="0"
             d="M 0,0 3.75,-0.002 C 3.7,0.563 3.555,0.987 3.32,1.27 2.957,1.709 2.487,1.928 1.91,1.928 1.387,1.928 0.946,1.754 0.587,1.403 0.233,1.053 0.037,0.585 0,0 M 3.736,-1.844 4.913,-1.989 C 4.729,-2.675 4.385,-3.211 3.88,-3.589 3.38,-3.968 2.74,-4.157 1.959,-4.157 c -0.983,0 -1.762,0.3 -2.341,0.903 -0.574,0.61 -0.86,1.456 -0.86,2.551 0,1.129 0.295,2.007 0.873,2.631 C 0.215,2.551 0.969,2.864 1.897,2.866 2.796,2.864 3.53,2.556 4.099,1.947 4.667,1.336 4.95,0.474 4.95,-0.635 c 0,-0.068 0,-0.17 -0.007,-0.303 l -5.008,0 c 0.042,-0.737 0.25,-1.301 0.626,-1.694 0.376,-0.394 0.845,-0.589 1.405,-0.589 0.416,0 0.775,0.108 1.068,0.329 0.296,0.218 0.529,0.569 0.702,1.048"
             style="fill:#838487;fill-opacity:1;fill-rule:evenodd;stroke:none"
             id="path160" /></g><g
           id="g162"
           transform="translate(81.8169,21.3765)"><path
             inkscape:connector-curvature="0"
             d="m 0,0 0.001,6.717 1.028,0 L 1.028,5.763 C 1.521,6.5 2.233,6.87 3.165,6.872 3.572,6.872 3.94,6.795 4.278,6.65 4.621,6.504 4.876,6.312 5.045,6.08 5.212,5.843 5.332,5.562 5.399,5.238 5.44,5.026 5.461,4.658 5.461,4.131 L 5.46,0 4.323,0 4.324,4.085 C 4.324,4.55 4.277,4.896 4.189,5.124 4.1,5.357 3.942,5.54 3.714,5.676 3.491,5.813 3.228,5.884 2.924,5.884 2.44,5.884 2.021,5.73 1.666,5.423 1.315,5.114 1.141,4.529 1.141,3.668 L 1.14,0 0,0 z"
             style="fill:#838487;fill-opacity:1;fill-rule:nonzero;stroke:none"
             id="path164" /></g><g
           id="g166"
           transform="translate(89.314,25.3789)"><path
             inkscape:connector-curvature="0"
             d="M 0,0 3.753,0 C 3.703,0.566 3.559,0.989 3.321,1.271 2.959,1.709 2.49,1.93 1.913,1.93 1.387,1.93 0.947,1.756 0.588,1.407 0.236,1.057 0.04,0.587 0,0 M 3.739,-1.842 4.915,-1.987 C 4.729,-2.673 4.386,-3.208 3.884,-3.587 3.383,-3.966 2.74,-4.154 1.96,-4.154 c -0.981,0 -1.763,0.3 -2.34,0.904 -0.572,0.606 -0.859,1.455 -0.859,2.549 0,1.129 0.29,2.009 0.874,2.632 0.582,0.624 1.338,0.935 2.264,0.936 0.898,0 1.63,-0.308 2.2,-0.92 0.571,-0.609 0.855,-1.472 0.854,-2.58 0,-0.068 -0.001,-0.169 -0.006,-0.304 l -5.01,0.002 c 0.042,-0.74 0.252,-1.303 0.626,-1.695 0.375,-0.392 0.843,-0.588 1.404,-0.588 0.417,0 0.774,0.108 1.07,0.328 0.295,0.218 0.529,0.569 0.702,1.048"
             style="fill:#838487;fill-opacity:1;fill-rule:evenodd;stroke:none"
             id="path168" /></g><g
           id="g170"
           transform="translate(94.4897,21.3745)"><path
             inkscape:connector-curvature="0"
             d="M 0,0 0,0.923 4.275,5.831 C 3.791,5.807 3.362,5.793 2.992,5.793 l -2.74,0.002 0,0.922 5.491,-0.003 0,-0.75 L 2.105,1.7 1.402,0.923 c 0.511,0.038 0.991,0.056 1.436,0.056 l 3.109,0 0,-0.982 L 0,0 z"
             style="fill:#838487;fill-opacity:1;fill-rule:nonzero;stroke:none"
             id="path172" /></g><g
           id="g174"
           transform="translate(105.4014,21.3711)"><path
             inkscape:connector-curvature="0"
             d="M 0,0 0,0.987 C -0.524,0.229 -1.234,-0.15 -2.133,-0.15 c -0.397,0 -0.769,0.074 -1.111,0.228 -0.344,0.151 -0.599,0.339 -0.768,0.568 -0.161,0.232 -0.279,0.515 -0.348,0.847 -0.045,0.225 -0.067,0.581 -0.067,1.065 l 10e-4,4.16 1.137,0 -10e-4,-3.725 c 0,-0.596 0.023,-0.995 0.069,-1.202 0.071,-0.299 0.226,-0.535 0.454,-0.709 0.235,-0.169 0.521,-0.253 0.862,-0.253 0.342,0 0.661,0.085 0.962,0.259 0.298,0.178 0.51,0.416 0.632,0.716 0.126,0.303 0.19,0.741 0.19,1.314 l 0,3.6 1.142,0 L 1.019,0 0,0 z"
             style="fill:#838487;fill-opacity:1;fill-rule:nonzero;stroke:none"
             id="path176" /></g><g
           id="g178"
           transform="translate(108.4941,25.3745)"><path
             inkscape:connector-curvature="0"
             d="M 0,0 3.753,0 C 3.703,0.565 3.558,0.989 3.322,1.271 2.96,1.709 2.488,1.929 1.911,1.929 1.389,1.929 0.949,1.755 0.591,1.405 0.237,1.054 0.04,0.587 0,0 m 3.74,-1.842 1.176,-0.146 c -0.187,-0.686 -0.531,-1.22 -1.032,-1.6 -0.5,-0.379 -1.143,-0.569 -1.925,-0.567 -0.98,0 -1.761,0.299 -2.337,0.904 -0.574,0.607 -0.86,1.455 -0.86,2.55 0,1.129 0.291,2.007 0.873,2.632 0.58,0.623 1.337,0.936 2.263,0.936 0.898,0 1.632,-0.308 2.203,-0.92 0.57,-0.61 0.853,-1.473 0.853,-2.58 0,-0.068 -0.002,-0.169 -0.007,-0.305 l -5.009,10e-4 c 0.041,-0.738 0.249,-1.302 0.624,-1.694 0.375,-0.391 0.844,-0.589 1.406,-0.589 0.417,0 0.773,0.11 1.068,0.33 0.294,0.218 0.53,0.566 0.704,1.048"
             style="fill:#838487;fill-opacity:1;fill-rule:evenodd;stroke:none"
             id="path180" /></g><g
           id="g182"
           transform="translate(114.2446,21.3701)"><path
             inkscape:connector-curvature="0"
             d="m 0,0 0.001,9.273 1.139,0 L 1.138,-0.002 0,0 z"
             style="fill:#838487;fill-opacity:1;fill-rule:nonzero;stroke:none"
             id="path184" /></g><g
           id="g186"
           transform="translate(120.8687,24.7388)"><path
             inkscape:connector-curvature="0"
             d="m 0,0 c -0.414,-0.17 -1.034,-0.312 -1.861,-0.43 -0.467,-0.066 -0.798,-0.143 -0.994,-0.227 -0.193,-0.085 -0.344,-0.208 -0.447,-0.373 -0.108,-0.16 -0.161,-0.34 -0.161,-0.537 0,-0.306 0.116,-0.557 0.342,-0.76 0.232,-0.202 0.571,-0.305 1.012,-0.305 0.439,0 0.829,0.097 1.171,0.286 0.342,0.194 0.593,0.457 0.754,0.789 0.121,0.258 0.182,0.637 0.184,1.14 L 0,0 z m 0.094,-2.542 c -0.422,-0.359 -0.828,-0.612 -1.223,-0.759 -0.388,-0.149 -0.804,-0.22 -1.251,-0.22 -0.737,0 -1.306,0.178 -1.701,0.537 -0.398,0.362 -0.596,0.823 -0.595,1.386 0,0.328 0.075,0.628 0.221,0.898 0.152,0.272 0.35,0.492 0.589,0.656 0.245,0.163 0.52,0.289 0.823,0.375 0.223,0.058 0.56,0.116 1.01,0.17 C -1.112,0.608 -0.434,0.742 0,0.892 0.002,1.048 0.007,1.146 0.007,1.188 0.008,1.652 -0.101,1.981 -0.316,2.17 -0.607,2.427 -1.039,2.557 -1.613,2.557 -2.148,2.557 -2.545,2.464 -2.803,2.271 -3.056,2.087 -3.244,1.756 -3.365,1.28 l -1.114,0.152 c 0.099,0.475 0.266,0.859 0.5,1.151 0.23,0.294 0.567,0.521 1.005,0.676 0.438,0.159 0.95,0.238 1.525,0.241 0.574,0 1.04,-0.069 1.4,-0.205 C 0.311,3.162 0.571,2.992 0.74,2.785 0.909,2.582 1.027,2.325 1.096,2.013 1.131,1.819 1.151,1.469 1.151,0.962 L 1.15,-0.557 c 0,-1.058 0.022,-1.729 0.07,-2.01 0.05,-0.28 0.147,-0.547 0.29,-0.805 l -1.19,0 c -0.116,0.238 -0.193,0.514 -0.226,0.83"
             style="fill:#838487;fill-opacity:1;fill-rule:evenodd;stroke:none"
             id="path188" /></g><g
           id="g190"
           transform="translate(55.2969,35.6958)"><path
             inkscape:connector-curvature="0"
             d="m 0,0 0,1.089 3.928,0.007 0,-3.443 C 3.325,-2.829 2.704,-3.189 2.062,-3.435 c -0.641,-0.24 -1.3,-0.359 -1.975,-0.359 -0.909,0 -1.739,0.191 -2.485,0.582 -0.744,0.391 -1.302,0.957 -1.683,1.696 -0.378,0.737 -0.57,1.562 -0.568,2.473 0,0.903 0.189,1.743 0.564,2.525 0.377,0.782 0.924,1.366 1.632,1.746 0.709,0.379 1.526,0.568 2.449,0.567 0.671,0 1.275,-0.109 1.815,-0.329 C 2.356,5.251 2.781,4.949 3.089,4.562 3.396,4.173 3.63,3.667 3.791,3.043 L 2.683,2.74 C 2.544,3.211 2.371,3.583 2.165,3.852 1.958,4.124 1.662,4.336 1.28,4.497 0.897,4.662 0.47,4.745 0.001,4.745 -0.56,4.745 -1.045,4.659 -1.454,4.486 -1.862,4.317 -2.194,4.095 -2.447,3.816 -2.695,3.538 -2.891,3.232 -3.029,2.898 -3.266,2.326 -3.383,1.703 -3.383,1.033 c 0,-0.826 0.14,-1.52 0.423,-2.074 0.287,-0.558 0.701,-0.971 1.246,-1.24 0.543,-0.271 1.122,-0.406 1.733,-0.406 0.53,0 1.049,0.1 1.557,0.301 0.506,0.207 0.888,0.427 1.149,0.66 L 2.726,0 0,0 z"
             style="fill:#838487;fill-opacity:1;fill-rule:nonzero;stroke:none"
             id="path192" /></g><g
           id="g194"
           transform="translate(61.0669,35.417)"><path
             inkscape:connector-curvature="0"
             d="m 0,0 c 0,-0.86 0.187,-1.504 0.562,-1.936 0.374,-0.426 0.848,-0.641 1.416,-0.641 0.567,-10e-4 1.036,0.215 1.412,0.645 0.376,0.432 0.561,1.088 0.562,1.968 0,0.833 -0.189,1.46 -0.567,1.886 C 3.01,2.353 2.542,2.567 1.979,2.567 1.411,2.567 0.937,2.355 0.563,1.929 0.188,1.502 0,0.859 0,0 m -1.172,0 c 0,1.243 0.347,2.165 1.039,2.764 0.578,0.497 1.28,0.745 2.114,0.747 C 2.903,3.509 3.657,3.207 4.246,2.599 4.832,1.995 5.124,1.16 5.124,0.093 5.124,-0.772 4.991,-1.454 4.73,-1.948 4.474,-2.444 4.096,-2.828 3.598,-3.103 3.106,-3.375 2.564,-3.514 1.978,-3.514 c -0.94,0 -1.702,0.303 -2.283,0.908 -0.578,0.604 -0.867,1.471 -0.867,2.606"
             style="fill:#838487;fill-opacity:1;fill-rule:evenodd;stroke:none"
             id="path196" /></g><g
           id="g198"
           transform="translate(67.9927,35.4644)"><path
             inkscape:connector-curvature="0"
             d="m 0,0 c 0,-0.803 0.109,-1.387 0.331,-1.746 0.358,-0.586 0.841,-0.879 1.452,-0.879 0.497,0 0.929,0.213 1.291,0.646 0.364,0.434 0.544,1.08 0.544,1.936 0,0.876 -0.173,1.522 -0.524,1.941 C 2.749,2.315 2.33,2.524 1.837,2.524 1.337,2.524 0.908,2.308 0.547,1.874 0.18,1.444 0.001,0.82 0,0 m 0.012,-3.409 -1.055,0 10e-4,9.275 1.139,0 L 0.094,2.558 C 0.579,3.159 1.19,3.46 1.938,3.46 2.35,3.46 2.74,3.376 3.108,3.208 3.477,3.044 3.782,2.809 4.018,2.506 4.257,2.206 4.446,1.843 4.581,1.417 4.715,0.99 4.783,0.536 4.783,0.05 4.782,-1.103 4.496,-1.99 3.927,-2.621 3.358,-3.249 2.677,-3.563 1.877,-3.563 1.087,-3.561 0.463,-3.23 0.013,-2.568 L 0.012,-3.409 z"
             style="fill:#838487;fill-opacity:1;fill-rule:evenodd;stroke:none"
             id="path200" /></g><g
           id="g202"
           transform="translate(73.5977,32.0532)"><path
             inkscape:connector-curvature="0"
             d="m 0,0 0.001,6.719 1.138,0 L 1.138,0 0,0 z m 0.001,7.966 0.001,1.31 1.139,0 L 1.14,7.964 0.001,7.966 z"
             style="fill:#838487;fill-opacity:1;fill-rule:evenodd;stroke:none"
             id="path204" /></g><g
           id="g206"
           transform="translate(76.7612,36.0576)"><path
             inkscape:connector-curvature="0"
             d="M 0,0 3.751,-0.001 C 3.701,0.564 3.556,0.99 3.321,1.27 2.958,1.71 2.488,1.93 1.912,1.93 1.389,1.93 0.948,1.754 0.588,1.406 0.234,1.054 0.037,0.585 0,0 M 3.739,-1.841 4.913,-1.987 C 4.729,-2.675 4.384,-3.208 3.883,-3.589 3.382,-3.968 2.74,-4.159 1.958,-4.158 c -0.981,0 -1.762,0.303 -2.339,0.908 -0.572,0.607 -0.86,1.457 -0.86,2.55 0.001,1.129 0.293,2.006 0.874,2.63 C 0.215,2.553 0.97,2.865 1.899,2.865 2.797,2.865 3.532,2.56 4.1,1.948 4.669,1.336 4.954,0.476 4.953,-0.634 4.953,-0.7 4.95,-0.804 4.946,-0.937 l -5.009,0 c 0.041,-0.738 0.25,-1.301 0.625,-1.695 0.375,-0.39 0.844,-0.59 1.405,-0.59 0.418,0 0.773,0.111 1.069,0.331 0.295,0.218 0.529,0.568 0.703,1.05"
             style="fill:#838487;fill-opacity:1;fill-rule:evenodd;stroke:none"
             id="path208" /></g><g
           id="g210"
           transform="translate(82.5215,32.0522)"><path
             inkscape:connector-curvature="0"
             d="m 0,0 0.002,6.719 1.024,0 0,-1.018 c 0.263,0.475 0.502,0.786 0.722,0.94 0.226,0.152 0.469,0.228 0.734,0.228 0.384,0 0.774,-0.122 1.171,-0.367 L 3.259,5.446 C 2.982,5.611 2.704,5.692 2.425,5.692 2.176,5.692 1.955,5.618 1.755,5.464 1.557,5.318 1.417,5.11 1.332,4.846 1.204,4.44 1.143,3.999 1.142,3.519 L 1.142,0 0,0 z"
             style="fill:#838487;fill-opacity:1;fill-rule:nonzero;stroke:none"
             id="path212" /></g><g
           id="g214"
           transform="translate(86.2803,32.0503)"><path
             inkscape:connector-curvature="0"
             d="m 0,0 0.002,6.721 1.024,-0.002 0,-0.956 C 1.521,6.501 2.233,6.87 3.165,6.87 3.569,6.87 3.94,6.795 4.279,6.649 4.62,6.504 4.874,6.315 5.044,6.081 5.213,5.843 5.331,5.562 5.399,5.237 5.439,5.026 5.459,4.657 5.459,4.13 l -10e-4,-4.131 -1.137,0 0.001,4.088 C 4.322,4.55 4.279,4.896 4.189,5.124 4.102,5.355 3.942,5.539 3.714,5.674 3.49,5.815 3.227,5.882 2.923,5.882 2.438,5.882 2.019,5.73 1.665,5.421 1.316,5.114 1.139,4.532 1.139,3.67 L 1.138,0 0,0 z"
             style="fill:#838487;fill-opacity:1;fill-rule:nonzero;stroke:none"
             id="path216" /></g><g
           id="g218"
           transform="translate(93.6641,35.4082)"><path
             inkscape:connector-curvature="0"
             d="m 0,0 c -0.002,-0.859 0.186,-1.506 0.561,-1.936 0.375,-0.425 0.848,-0.64 1.418,-0.64 0.564,0 1.035,0.215 1.411,0.646 0.375,0.429 0.562,1.087 0.562,1.966 C 3.953,0.868 3.763,1.496 3.383,1.923 3.008,2.351 2.541,2.567 1.98,2.567 1.41,2.567 0.937,2.356 0.562,1.93 0.187,1.501 0,0.86 0,0 m -1.171,0 c 0,1.245 0.346,2.166 1.037,2.764 0.58,0.5 1.283,0.746 2.114,0.746 0.924,0 1.679,-0.302 2.264,-0.911 C 4.831,1.996 5.122,1.159 5.122,0.095 5.121,-0.772 4.992,-1.452 4.729,-1.949 4.475,-2.443 4.097,-2.828 3.599,-3.102 3.104,-3.375 2.565,-3.514 1.979,-3.514 c -0.942,0 -1.702,0.305 -2.283,0.907 -0.579,0.605 -0.867,1.473 -0.867,2.607"
             style="fill:#838487;fill-opacity:1;fill-rule:evenodd;stroke:none"
             id="path220" /></g><g
           id="g222"
           transform="translate(104.5498,36.0894)"><path
             inkscape:connector-curvature="0"
             d="m 0,0 -0.001,-2.48 1.735,-10e-4 c 0.672,0 1.101,0.02 1.283,0.056 0.279,0.051 0.504,0.173 0.678,0.368 0.176,0.199 0.264,0.459 0.264,0.789 0,0.279 -0.069,0.516 -0.201,0.709 C 3.622,-0.366 3.427,-0.225 3.169,-0.134 2.917,-0.044 2.364,0 1.512,0 L 0,0 z m 0,3.689 0,-2.146 1.229,0 c 0.729,0 1.182,0.01 1.357,0.031 C 2.908,1.612 3.16,1.721 3.34,1.903 3.524,2.086 3.621,2.331 3.621,2.63 3.621,2.918 3.539,3.148 3.38,3.327 3.223,3.507 2.991,3.618 2.676,3.657 2.493,3.677 1.958,3.689 1.078,3.689 L 0,3.689 z M -1.871,5.231 1.836,5.23 C 2.569,5.23 3.116,5.198 3.475,5.135 3.839,5.076 4.16,4.948 4.444,4.755 4.73,4.562 4.966,4.302 5.156,3.978 5.348,3.657 5.441,3.295 5.441,2.895 5.441,2.46 5.322,2.062 5.085,1.7 4.856,1.336 4.537,1.065 4.137,0.885 4.702,0.719 5.136,0.437 5.441,0.043 5.743,-0.355 5.896,-0.82 5.894,-1.355 5.894,-1.777 5.797,-2.189 5.598,-2.589 5.404,-2.985 5.135,-3.305 4.794,-3.546 4.458,-3.78 4.041,-3.927 3.543,-3.981 3.228,-4.016 2.477,-4.036 1.283,-4.044 l -3.156,0.002 0.002,9.273 z"
             style="fill:#595357;fill-opacity:1;fill-rule:evenodd;stroke:none"
             id="path224" /></g><g
           id="g226"
           transform="translate(112.855,35.4033)"><path
             inkscape:connector-curvature="0"
             d="m 0,0 c 0,-0.666 0.157,-1.177 0.474,-1.532 0.318,-0.353 0.707,-0.531 1.171,-0.531 0.462,0 0.852,0.178 1.165,0.53 0.315,0.354 0.473,0.87 0.473,1.544 C 3.284,0.669 3.125,1.177 2.81,1.529 2.498,1.884 2.109,2.062 1.646,2.062 1.182,2.062 0.792,1.884 0.475,1.529 0.158,1.177 0,0.666 0,0 m -1.822,0.096 c 0.001,0.59 0.146,1.16 0.438,1.713 0.292,0.552 0.702,0.975 1.235,1.267 0.535,0.288 1.13,0.435 1.788,0.435 1.019,0 1.85,-0.334 2.5,-0.994 0.649,-0.661 0.972,-1.491 0.972,-2.499 0,-1.017 -0.328,-1.86 -0.986,-2.531 -0.655,-0.667 -1.479,-1 -2.475,-1 -0.614,0 -1.204,0.14 -1.765,0.419 -0.555,0.279 -0.978,0.684 -1.269,1.22 -0.293,0.541 -0.438,1.198 -0.438,1.97"
             style="fill:#595357;fill-opacity:1;fill-rule:evenodd;stroke:none"
             id="path228" /></g><g
           id="g230"
           transform="translate(118.7881,32.042)"><path
             inkscape:connector-curvature="0"
             d="M 0,0 0.002,9.275 1.779,9.274 1.777,-0.002 0,0 z"
             style="fill:#595357;fill-opacity:1;fill-rule:nonzero;stroke:none"
             id="path232" /></g><g
           id="g234"
           transform="translate(121.8169,32.04)"><path
             inkscape:connector-curvature="0"
             d="m 0,0 0.002,6.72 1.779,0 L 1.779,0 0,0 z m 0.002,7.63 0.001,1.646 1.779,0 0,-1.648 -1.78,0.002 z"
             style="fill:#595357;fill-opacity:1;fill-rule:evenodd;stroke:none"
             id="path236" /></g><g
           id="g238"
           transform="translate(126.6968,32.04)"><path
             inkscape:connector-curvature="0"
             d="m 0,0 -2.708,6.72 1.868,0 L 0.422,3.291 0.79,2.146 C 0.886,2.434 0.95,2.628 0.975,2.72 1.033,2.912 1.097,3.098 1.164,3.291 L 2.441,6.72 4.271,6.718 1.602,0 0,0 z"
             style="fill:#595357;fill-opacity:1;fill-rule:nonzero;stroke:none"
             id="path240" /></g><g
           id="g242"
           transform="translate(135.1934,35.2661)"><path
             inkscape:connector-curvature="0"
             d="m 0,0 c -0.229,-0.08 -0.589,-0.167 -1.083,-0.275 -0.494,-0.104 -0.817,-0.207 -0.97,-0.309 -0.231,-0.163 -0.345,-0.371 -0.345,-0.624 0,-0.249 0.091,-0.465 0.276,-0.646 0.187,-0.182 0.423,-0.272 0.709,-0.272 0.321,0 0.627,0.104 0.917,0.315 0.216,0.161 0.356,0.356 0.425,0.587 C -0.024,-1.07 0,-0.78 0,-0.355 L 0,0 z m -2.378,1.441 -1.614,0.291 c 0.183,0.65 0.492,1.133 0.936,1.442 0.443,0.313 1.102,0.467 1.974,0.468 0.793,0 1.382,-0.094 1.77,-0.285 C 1.077,3.173 1.348,2.933 1.507,2.642 1.667,2.354 1.746,1.827 1.746,1.055 L 1.726,-1.02 c 0,-0.59 0.026,-1.029 0.082,-1.312 0.06,-0.277 0.167,-0.575 0.321,-0.897 l -1.759,0 c -0.047,0.119 -0.103,0.292 -0.169,0.524 -0.029,0.108 -0.05,0.178 -0.063,0.21 -0.304,-0.294 -0.629,-0.516 -0.974,-0.663 -0.347,-0.147 -0.716,-0.223 -1.108,-0.223 -0.691,0 -1.237,0.188 -1.638,0.564 -0.395,0.375 -0.594,0.851 -0.594,1.424 0,0.381 0.089,0.719 0.272,1.014 0.181,0.298 0.435,0.526 0.758,0.684 0.331,0.158 0.801,0.297 1.417,0.416 0.834,0.155 1.409,0.301 1.73,0.435 l 0,0.176 c 0,0.343 -0.085,0.585 -0.256,0.73 -0.167,0.145 -0.485,0.22 -0.954,0.22 -0.315,0 -0.562,-0.063 -0.741,-0.191 -0.177,-0.12 -0.319,-0.337 -0.428,-0.65"
             style="fill:#595357;fill-opacity:1;fill-rule:evenodd;stroke:none"
             id="path244" /></g><g
           id="g246"
           transform="translate(139.8213,32.0371)"><path
             inkscape:connector-curvature="0"
             d="m 0,0 -1.776,0 0.002,6.719 1.649,0 0,-0.955 C 0.159,6.213 0.412,6.511 0.636,6.656 0.862,6.797 1.12,6.87 1.408,6.87 1.811,6.87 2.2,6.757 2.577,6.534 L 2.026,4.983 C 1.728,5.18 1.448,5.276 1.191,5.276 0.941,5.276 0.733,5.206 0.559,5.065 0.386,4.932 0.25,4.686 0.147,4.327 0.049,3.968 0,3.217 0,2.075 L 0,0 z"
             style="fill:#595357;fill-opacity:1;fill-rule:nonzero;stroke:none"
             id="path248" /></g><g
           id="g250"
           transform="translate(142.5903,32.0371)"><path
             inkscape:connector-curvature="0"
             d="m 0,0 0.002,6.717 1.781,0 L 1.78,-0.001 0,0 z m 0.002,7.627 0,1.647 1.781,-0.002 0,-1.645 -1.781,0 z"
             style="fill:#595357;fill-opacity:1;fill-rule:evenodd;stroke:none"
             id="path252" /></g><g
           id="g254"
           transform="translate(149.3301,35.2612)"><path
             inkscape:connector-curvature="0"
             d="m 0,0 c -0.228,-0.078 -0.587,-0.167 -1.082,-0.271 -0.492,-0.106 -0.816,-0.21 -0.968,-0.312 -0.233,-0.163 -0.349,-0.371 -0.349,-0.624 0,-0.25 0.094,-0.465 0.28,-0.645 0.185,-0.182 0.421,-0.274 0.709,-0.274 0.322,0 0.626,0.105 0.917,0.317 0.214,0.159 0.356,0.355 0.424,0.587 C -0.024,-1.07 0,-0.781 0,-0.354 L 0,0 z M -2.378,1.443 -3.99,1.734 c 0.179,0.65 0.492,1.131 0.936,1.442 0.442,0.311 1.1,0.466 1.972,0.468 0.795,0 1.385,-0.096 1.774,-0.285 C 1.077,3.174 1.351,2.936 1.505,2.644 1.667,2.356 1.746,1.829 1.746,1.057 L 1.728,-1.021 c 0,-0.59 0.027,-1.026 0.083,-1.309 0.056,-0.279 0.164,-0.577 0.32,-0.898 l -1.758,0 c -0.046,0.118 -0.103,0.293 -0.169,0.526 -0.032,0.104 -0.052,0.176 -0.065,0.209 -0.303,-0.296 -0.63,-0.516 -0.973,-0.664 -0.35,-0.145 -0.717,-0.223 -1.109,-0.223 -0.691,0 -1.238,0.189 -1.638,0.564 -0.397,0.376 -0.593,0.85 -0.593,1.424 0,0.381 0.089,0.717 0.27,1.014 0.182,0.299 0.435,0.527 0.761,0.682 0.33,0.158 0.8,0.299 1.415,0.418 C -0.896,0.877 -0.319,1.023 0,1.159 L 0,1.334 C 0,1.677 -0.083,1.919 -0.253,2.062 -0.42,2.208 -0.74,2.283 -1.208,2.283 -1.523,2.283 -1.769,2.22 -1.949,2.093 -2.125,1.972 -2.27,1.756 -2.378,1.443"
             style="fill:#595357;fill-opacity:1;fill-rule:evenodd;stroke:none"
             id="path256" /></g><g
           id="g258"
           transform="translate(158.3682,32.0303)"><path
             inkscape:connector-curvature="0"
             d="m 0,0 -1.776,0.002 0,3.429 c 0,0.724 -0.038,1.192 -0.113,1.405 -0.075,0.213 -0.2,0.382 -0.372,0.499 -0.171,0.116 -0.375,0.177 -0.613,0.177 -0.309,0 -0.587,-0.084 -0.83,-0.253 C -3.95,5.092 -4.119,4.869 -4.21,4.591 -4.3,4.311 -4.344,3.798 -4.344,3.046 l -10e-4,-3.044 -1.779,0.001 0.003,6.72 1.651,0 0,-0.989 c 0.587,0.759 1.324,1.139 2.214,1.137 0.394,0 0.752,-0.071 1.076,-0.213 0.324,-0.14 0.569,-0.32 0.734,-0.537 0.171,-0.222 0.283,-0.472 0.348,-0.747 0.064,-0.28 0.1,-0.679 0.1,-1.196 L 0,0 z"
             style="fill:#595357;fill-opacity:1;fill-rule:nonzero;stroke:none"
             id="path260" /></g><g
           id="g262"
           transform="translate(161.0132,35.3916)"><path
             inkscape:connector-curvature="0"
             d="m 0,0 c 0,-0.667 0.161,-1.177 0.476,-1.532 0.314,-0.355 0.705,-0.533 1.169,-0.533 0.464,0 0.851,0.178 1.164,0.533 0.317,0.354 0.474,0.868 0.474,1.542 C 3.284,0.668 3.126,1.175 2.81,1.53 2.498,1.883 2.11,2.06 1.646,2.06 1.182,2.06 0.792,1.883 0.477,1.53 0.161,1.175 0,0.665 0,0 m -1.821,0.096 c 0,0.589 0.147,1.161 0.438,1.713 0.29,0.552 0.7,0.974 1.232,1.265 0.536,0.289 1.135,0.436 1.792,0.436 1.016,0 1.849,-0.334 2.497,-0.993 0.651,-0.661 0.975,-1.492 0.974,-2.5 0,-1.017 -0.33,-1.859 -0.986,-2.532 -0.654,-0.666 -1.48,-1 -2.476,-1 -0.614,0 -1.204,0.14 -1.765,0.42 -0.555,0.278 -0.979,0.686 -1.268,1.221 -0.292,0.54 -0.438,1.198 -0.438,1.97"
             style="fill:#595357;fill-opacity:1;fill-rule:evenodd;stroke:none"
             id="path264" /></g><g
           id="g266"
           transform="translate(172.6567,41.6431)"><path
             inkscape:connector-curvature="0"
             d="M 0,0 -0.005,-20.192"
             style="fill:none;stroke:#595357;stroke-width:1;stroke-linecap:butt;stroke-linejoin:miter;stroke-miterlimit:3.86400008;stroke-opacity:1;stroke-dasharray:none"
             id="path268" /></g></g></g><g
       id="g270"><g
         id="g272"
         clip-path="url(#clipPath274)"><g
           id="g278"><g
             id="g280"><path
               inkscape:connector-curvature="0"
               d="M 35.077,37.158 C 29.251,37.069 22.819,32.782 20.679,31.161 l 0,0 0.048,-8.45 c 2.149,2.404 8.637,8.049 15.108,8.843 l 0,0 c 0.278,0.033 0.504,0.049 0.692,0.045 l 0,0 -0.777,5.153 c -0.029,0.116 -0.048,0.243 -0.065,0.381 l 0,0 c -0.139,0.019 -0.304,0.028 -0.505,0.028 l 0,0 c -0.034,0 -0.068,0 -0.103,-0.003"
               style="fill:url(#linearGradient282);stroke:none"
               id="path290" /></g></g></g></g><g
       id="g292"><g
         id="g294"
         clip-path="url(#clipPath296)"><g
           id="g300"><g
             id="g302"><path
               inkscape:connector-curvature="0"
               d="m 36.971,35.931 c -0.743,-0.098 -1.076,0.18 -1.221,0.821 l 0,0 0.777,-5.153 0.018,0 c 0.089,-0.796 0.228,-2.024 1.558,-1.875 l 0,0 c 1.779,0.198 4.58,1.405 8.183,4.364 l 0,0 0,7.737 C 43.268,38.078 38.64,36.15 36.971,35.931"
               style="fill:url(#linearGradient304);stroke:none"
               id="path312" /></g></g></g></g><g
       id="g314"><g
         id="g316"
         clip-path="url(#clipPath318)"><g
           id="g322"><g
             id="g324"><path
               inkscape:connector-curvature="0"
               d="m 36.491,31.599 c -0.18,0 -0.397,-0.014 -0.656,-0.045 l 0,0 C 29.364,30.76 22.876,25.115 20.727,22.711 l 0,0 0.008,-1.588 6.671,0 c 1.767,1.839 7.034,4.931 9.985,4.867 l 0,0 -0.864,5.609 -0.036,0 z"
               style="fill:url(#linearGradient326);stroke:none"
               id="path334" /></g></g></g></g><g
       id="g336"><g
         id="g338"
         clip-path="url(#clipPath340)"><g
           id="g344"><g
             id="g346"><path
               inkscape:connector-curvature="0"
               d="m 38.103,29.724 c -1.33,-0.149 -1.469,1.079 -1.558,1.875 l 0,0 -0.018,0 0.839,-5.603 c 0.122,-0.63 0.342,-1.363 1.043,-1.695 l 0,0 c 1.932,-0.919 7.877,2.369 7.877,2.369 l 0,0 0,7.417 0,10e-4 c -3.603,-2.959 -6.404,-4.166 -8.183,-4.364"
               style="fill:url(#linearGradient348);stroke:none"
               id="path356" /></g></g></g></g><g
       id="g358"><g
         id="g360"
         clip-path="url(#clipPath362)"><g
           id="g366"><g
             id="g368"><path
               inkscape:connector-curvature="0"
               d="m 34.895,42.036 c 0.022,-0.033 0.065,-0.065 0.136,-0.099 l 0,0 c 0.122,-0.06 0.321,-0.096 0.585,-0.1 l 0,0 0.005,10e-4 -0.135,0.888 c -0.032,-0.212 -0.724,-0.478 -0.591,-0.69"
               style="fill:url(#linearGradient370);stroke:none"
               id="path376" /></g></g></g></g><g
       id="g378"><g
         id="g380"
         clip-path="url(#clipPath382)"><g
           id="g386"><g
             id="g388"><path
               inkscape:connector-curvature="0"
               d="m 20.642,37.715 0.037,-6.554 c 2.14,1.621 8.572,5.908 14.398,5.997 l 0,0 c 0.246,0.006 0.448,-0.003 0.608,-0.025 l 0,0 -0.79,4.903 c -0.243,0.387 2.278,0.958 -1.545,1.037 l 0,0 c -0.112,0 -0.222,0.003 -0.335,0.003 l 0,0 c -7.652,0 -12.373,-5.361 -12.373,-5.361"
               style="fill:url(#linearGradient390);stroke:none"
               id="path400" /></g></g></g></g><g
       id="g402"><g
         id="g404"
         clip-path="url(#clipPath406)"><g
           id="g410"><g
             id="g412"><path
               inkscape:connector-curvature="0"
               d="m 35.031,41.937 c -0.071,0.034 -0.114,0.066 -0.136,0.099 l 0,0 0.79,-4.903 c 0.085,-0.572 0.148,-1.348 1.286,-1.202 l 0,0 c 1.669,0.211 6.297,2.147 9.315,5.894 l 0,0 0,7.615 C 41.756,42.447 36.012,41.467 35.031,41.937"
               style="fill:url(#linearGradient414);stroke:none"
               id="path422" /></g></g></g></g><g
       id="g424"><g
         id="g426"
         clip-path="url(#clipPath428)"><g
           id="g432"
           transform="translate(22.9971,30.584)"><path
             inkscape:connector-curvature="0"
             d="m 0,0 c 0.096,-0.304 0.146,-0.456 0.244,-0.761 0.252,0.14 0.382,0.214 0.649,0.361 -0.2,-0.351 -0.299,-0.524 -0.491,-0.87 0.092,-0.316 0.137,-0.473 0.232,-0.789 -0.225,0.091 -0.336,0.138 -0.548,0.232 -0.192,-0.334 -0.286,-0.499 -0.469,-0.827 0.052,0.399 0.079,0.599 0.132,0.995 -0.199,0.112 -0.294,0.168 -0.478,0.284 0.219,0.145 0.333,0.219 0.572,0.373 0.063,0.398 0.095,0.6 0.157,1.002"
             style="fill:#ffffff;fill-opacity:1;fill-rule:nonzero;stroke:none"
             id="path434" /></g><g
           id="g436"
           transform="translate(25.3306,32.0767)"><path
             inkscape:connector-curvature="0"
             d="m 0,0 c 0.119,-0.304 0.179,-0.457 0.301,-0.762 0.304,0.15 0.459,0.226 0.775,0.375 -0.237,-0.355 -0.353,-0.532 -0.583,-0.886 0.11,-0.317 0.167,-0.475 0.279,-0.792 -0.268,0.088 -0.4,0.133 -0.658,0.218 -0.235,-0.345 -0.348,-0.518 -0.574,-0.862 0.063,0.406 0.094,0.611 0.157,1.016 -0.246,0.105 -0.367,0.154 -0.602,0.256 0.278,0.166 0.422,0.248 0.714,0.416 C -0.115,-0.615 -0.076,-0.408 0,0"
             style="fill:#ffffff;fill-opacity:1;fill-rule:nonzero;stroke:none"
             id="path438" /></g><g
           id="g440"
           transform="translate(28.063,33.5566)"><path
             inkscape:connector-curvature="0"
             d="m 0,0 c 0.137,-0.31 0.205,-0.463 0.344,-0.775 0.34,0.136 0.511,0.203 0.86,0.329 -0.259,-0.335 -0.389,-0.507 -0.643,-0.847 0.125,-0.322 0.188,-0.482 0.315,-0.804 -0.3,0.1 -0.449,0.151 -0.742,0.246 -0.263,-0.337 -0.392,-0.507 -0.65,-0.848 0.072,0.407 0.106,0.612 0.179,1.019 -0.283,0.108 -0.42,0.162 -0.695,0.27 0.323,0.16 0.489,0.239 0.823,0.394 C -0.125,-0.608 -0.084,-0.405 0,0"
             style="fill:#ffffff;fill-opacity:1;fill-rule:nonzero;stroke:none"
             id="path442" /></g><g
           id="g444"
           transform="translate(31.0303,34.7251)"><path
             inkscape:connector-curvature="0"
             d="m 0,0 c 0.149,-0.317 0.224,-0.476 0.375,-0.793 0.361,0.097 0.543,0.144 0.908,0.226 -0.269,-0.296 -0.404,-0.448 -0.673,-0.755 0.138,-0.328 0.207,-0.49 0.346,-0.815 -0.32,0.127 -0.479,0.19 -0.795,0.31 -0.279,-0.304 -0.419,-0.461 -0.695,-0.778 0.075,0.395 0.111,0.593 0.185,0.985 -0.306,0.132 -0.457,0.198 -0.756,0.324 0.352,0.135 0.528,0.2 0.887,0.322 C -0.13,-0.583 -0.087,-0.387 0,0"
             style="fill:#ffffff;fill-opacity:1;fill-rule:nonzero;stroke:none"
             id="path446" /></g><g
           id="g448"
           transform="translate(34.1558,35.4067)"><path
             inkscape:connector-curvature="0"
             d="m 0,0 c 0.16,-0.326 0.241,-0.49 0.402,-0.814 0.369,0.037 0.531,0.05 0.924,0.063 -0.284,-0.229 -0.4,-0.351 -0.667,-0.602 0.148,-0.329 0.224,-0.494 0.377,-0.824 -0.333,0.17 -0.499,0.251 -0.828,0.411 -0.281,-0.252 -0.422,-0.383 -0.706,-0.651 0.07,0.37 0.106,0.555 0.174,0.923 -0.319,0.168 -0.478,0.249 -0.794,0.411 0.368,0.083 0.551,0.123 0.918,0.187 0.081,0.36 0.121,0.54 0.2,0.896"
             style="fill:#ffffff;fill-opacity:1;fill-rule:nonzero;stroke:none"
             id="path450" /></g><g
           id="g452"
           transform="translate(37.728,34.4707)"><path
             inkscape:connector-curvature="0"
             d="m 0,0 c 0.123,-0.359 0.213,-0.534 0.33,-0.89 0.324,0.07 0.502,0.118 0.879,0.237 C 0.91,-1.005 0.768,-1.172 0.51,-1.483 0.616,-1.847 0.668,-2.03 0.771,-2.397 c -0.279,0.163 -0.407,0.23 -0.754,0.443 -0.342,-0.243 -0.481,-0.313 -0.692,-0.382 0.08,0.303 0.123,0.465 0.217,0.809 -0.238,0.294 -0.305,0.438 -0.601,0.778 0.363,-0.162 0.436,-0.187 0.77,-0.202 C -0.177,-0.587 -0.118,-0.395 0,0"
             style="fill:#ffffff;fill-opacity:1;fill-rule:nonzero;stroke:none"
             id="path454" /></g><g
           id="g456"
           transform="translate(40.8862,35.6909)"><path
             inkscape:connector-curvature="0"
             d="m 0,0 c 0.108,-0.349 0.161,-0.524 0.267,-0.876 0.379,0.195 0.575,0.299 0.97,0.532 -0.333,-0.466 -0.496,-0.691 -0.814,-1.122 0.089,-0.366 0.133,-0.549 0.219,-0.918 -0.298,0.088 -0.444,0.134 -0.734,0.238 -0.311,-0.397 -0.462,-0.585 -0.747,-0.947 0.109,0.453 0.166,0.681 0.283,1.142 -0.276,0.132 -0.411,0.202 -0.677,0.347 0.338,0.149 0.519,0.231 0.885,0.417 C -0.212,-0.718 -0.144,-0.479 0,0"
             style="fill:#ffffff;fill-opacity:1;fill-rule:nonzero;stroke:none"
             id="path458" /></g><g
           id="g460"
           transform="translate(44.1436,37.835)"><path
             inkscape:connector-curvature="0"
             d="m 0,0 c 0.087,-0.35 0.13,-0.529 0.221,-0.883 0.35,0.275 0.526,0.419 0.873,0.723 -0.289,-0.539 -0.437,-0.804 -0.735,-1.317 0.079,-0.371 0.119,-0.558 0.203,-0.93 -0.286,0.033 -0.425,0.055 -0.7,0.104 -0.307,-0.486 -0.461,-0.722 -0.764,-1.181 0.13,0.512 0.194,0.77 0.326,1.292 -0.261,0.081 -0.39,0.124 -0.648,0.216 0.346,0.242 0.52,0.371 0.872,0.643 C -0.211,-0.803 -0.14,-0.536 0,0"
             style="fill:#ffffff;fill-opacity:1;fill-rule:nonzero;stroke:none"
             id="path462" /></g></g></g><text
       transform="scale(1,-1)"
       id="text464"
       x="203.3125"
       y="-20.882299"
       style="text-anchor:start;text-align:start;writing-mode:lr;line-height:125%;-inkscape-font-specification:Sans;font-family:Sans;font-weight:normal;font-style:normal;font-stretch:normal;font-variant:normal;font-size:7.2px"
       sodipodi:linespacing="125%"><tspan
         sodipodi:role="line"
         id="tspan5621">Proceso Social de Trabajo</tspan></text>
<path
       d="m 807.875,14.284 -793.701,0 0,1.097 793.701,0 0,-1.097 z"
       style="fill:#595357;fill-opacity:1;fill-rule:nonzero;stroke:none"
       id="path1064"
       inkscape:connector-curvature="0" /></g></svg>